<svg width="171" height="171" viewBox="0 0 171 171" fill="none" xmlns="http://www.w3.org/2000/svg">
<path d="M49.7124 118.597C48.9624 118.597 48.2124 118.54 47.4624 118.431C45.0874 118.108 43.0093 117.233 41.2332 115.806C39.4676 114.374 38.3426 112.327 37.8582 109.66C37.7176 109.004 37.6134 108.332 37.5457 107.639C37.4884 106.957 37.4624 106.29 37.4624 105.639C37.4624 103.139 37.7593 100.722 38.3582 98.3892C38.9676 96.0662 39.6968 93.7746 40.5457 91.4933C41.4884 88.9517 42.5666 86.4829 43.7749 84.0767C44.9937 81.66 46.3062 79.3006 47.7124 76.9933C49.5041 74.0246 51.4051 71.134 53.4207 68.3267C55.4468 65.509 57.5145 62.7329 59.6291 59.9933C62.4312 56.41 65.3374 52.9204 68.3374 49.5142C71.3478 46.1131 74.4884 42.8215 77.7541 39.6392C79.5718 37.8058 81.4468 36.0558 83.3791 34.3892C85.3218 32.7121 87.3374 31.1183 89.4207 29.6183C90.8218 28.6183 92.2437 27.6808 93.6916 26.8058C95.1343 25.9204 96.6551 25.1496 98.2541 24.4933C99.4624 24.009 100.692 23.6131 101.942 23.3058C103.192 22.9881 104.468 22.8267 105.775 22.8267C107.202 22.8267 108.551 23.0923 109.817 23.6183C111.093 24.134 112.238 24.9621 113.254 26.0975C114.129 27.0871 114.822 28.1496 115.337 29.285C115.863 30.4256 116.285 31.6287 116.608 32.8892C116.801 33.6392 116.942 34.3892 117.025 35.1392C117.108 35.8892 117.15 36.6392 117.15 37.3892C117.15 38.2381 117.098 39.0975 117.004 39.9725C116.78 41.9621 116.431 43.8996 115.962 45.785C115.488 47.6756 114.926 49.5454 114.275 51.3892C113.692 53.0871 113.072 54.759 112.421 56.41C111.764 58.0506 111.077 59.6808 110.358 61.3058C110.301 61.4465 110.238 61.5767 110.171 61.7017C110.098 61.8267 110.03 61.9725 109.962 62.1392L110.275 62.6808C110.369 62.8787 110.421 63.0715 110.421 63.2642C110.421 63.5558 110.264 63.8006 109.962 63.9933C109.863 64.0662 109.78 64.1756 109.712 64.3267C109.655 64.4673 109.593 64.5975 109.525 64.7225C109.4 64.9881 109.28 65.2537 109.171 65.5142C109.056 65.7798 108.921 66.035 108.754 66.285C108.629 66.5246 108.41 66.7537 108.108 66.9725C107.983 67.0715 107.837 67.1183 107.671 67.1183C107.473 67.1183 107.296 67.0558 107.129 66.9308C106.973 66.7954 106.9 66.6287 106.9 66.4308C106.9 66.0142 106.962 65.6287 107.087 65.2642C107.254 64.8787 107.41 64.4881 107.567 64.0975C107.733 63.7121 107.9 63.3215 108.067 62.9308C108.91 61.0037 109.738 59.0454 110.546 57.0558C111.363 55.0715 112.134 53.0715 112.858 51.0558C113.343 49.6548 113.785 48.2381 114.192 46.8058C114.608 45.3787 114.942 43.9465 115.192 42.5142C115.483 40.8892 115.629 39.2798 115.629 37.6808C115.629 37.0298 115.598 36.3892 115.546 35.7642C115.504 35.1287 115.421 34.4933 115.296 33.8683C115.072 32.759 114.754 31.6965 114.337 30.6808C113.931 29.6548 113.369 28.6808 112.65 27.7642C112.108 27.0142 111.473 26.384 110.754 25.8683C110.03 25.3423 109.218 24.9673 108.317 24.7433C107.369 24.4829 106.509 24.3475 105.733 24.3475C105.494 24.3475 105.275 24.3579 105.067 24.3683C104.858 24.384 104.634 24.41 104.4 24.4517C103.494 24.5506 102.608 24.7225 101.733 24.9725C100.869 25.2121 100.025 25.509 99.1916 25.8683C97.9103 26.384 96.6759 26.9725 95.4832 27.6392C94.3009 28.3058 93.1395 29.0142 92.0041 29.7642C90.0874 31.0715 88.2332 32.4517 86.4416 33.91C84.6499 35.3579 82.9051 36.8683 81.2124 38.4517C75.8791 43.4673 70.8218 48.7537 66.0457 54.3058C61.2801 59.8631 56.827 65.6808 52.6916 71.7642C51.0666 74.1704 49.5145 76.6287 48.0457 79.1392C46.5874 81.6392 45.2384 84.2121 44.0041 86.8475C43.1291 88.7381 42.3218 90.6496 41.5874 92.5767C40.8478 94.4933 40.2593 96.4569 39.8166 98.4725C39.4832 99.8735 39.2332 101.264 39.0666 102.639C38.9103 104.025 38.8843 105.42 38.9832 106.827C39.0353 107.478 39.1134 108.124 39.2124 108.764C39.3062 109.415 39.4728 110.056 39.7124 110.681C40.2645 112.275 41.0978 113.545 42.2124 114.493C43.3374 115.436 44.6968 116.129 46.2957 116.577C46.8478 116.712 47.4051 116.811 47.9624 116.868C48.5145 116.936 49.0509 116.972 49.5666 116.972C51.3999 116.972 53.1707 116.749 54.8791 116.306C56.5874 115.874 58.2645 115.316 59.9207 114.639C61.5457 113.983 63.1134 113.233 64.6291 112.389C66.1395 111.54 67.6343 110.66 69.1082 109.743C70.9259 108.603 72.6812 107.389 74.3791 106.097C76.0718 104.816 77.7332 103.478 79.3582 102.077C81.4676 100.254 83.5562 98.4204 85.6291 96.5767C87.6968 94.7433 89.6916 92.8371 91.6082 90.8475C92.7437 89.7121 93.8426 88.5454 94.8999 87.3475C95.9676 86.1392 96.952 84.884 97.8582 83.5767C98.0249 83.3162 98.1968 83.0558 98.3791 82.8058C98.5562 82.5454 98.7228 82.2798 98.8791 82.0142C98.9468 81.9465 98.9884 81.8631 99.0041 81.7642C99.0145 81.6704 99.0457 81.5715 99.0874 81.4725C98.9468 81.4465 98.827 81.4308 98.7332 81.4308C98.6343 81.4308 98.5249 81.4308 98.3999 81.4308C98.1759 81.4308 97.9468 81.4412 97.7124 81.4517C97.4884 81.4673 97.2437 81.4933 96.9832 81.535C94.827 81.759 92.6812 82.0298 90.5457 82.3475C88.4207 82.6548 86.2853 82.9829 84.1499 83.3267C83.3999 83.4673 82.6499 83.6131 81.8999 83.7642C81.1499 83.9048 80.3999 84.0715 79.6499 84.2642C79.0926 84.3892 78.5249 84.6183 77.9416 84.9517C77.6187 85.1496 77.4624 85.3683 77.4624 85.6183C77.4624 85.8579 77.5249 86.0558 77.6499 86.2225C77.8166 86.4204 77.9676 86.6131 78.1082 86.8058C78.2593 87.0037 78.4468 87.16 78.6707 87.285C79.3895 87.7173 80.0926 88.0558 80.7749 88.3058C80.8999 88.3475 81.0457 88.3579 81.2124 88.3267C81.3791 88.285 81.5249 88.2798 81.6499 88.3058C81.8166 88.3475 81.9884 88.3683 82.1707 88.3683C82.3478 88.3683 82.5145 88.3996 82.6707 88.4517C83.0301 88.5506 83.2124 88.8006 83.2124 89.2017C83.2124 89.4256 83.1395 89.6183 83.0041 89.785C82.8791 89.9412 82.702 90.0142 82.4832 90.0142C82.3843 90.0142 82.2853 90.0298 82.1916 90.0558C82.0926 90.0715 81.9937 90.0767 81.8999 90.0767C81.0509 90.0767 80.2541 89.91 79.5041 89.5767C78.7541 89.2329 78.0718 88.7954 77.4624 88.2642C77.1968 88.0037 76.9468 87.7329 76.7124 87.4517C76.4884 87.1756 76.2957 86.8787 76.1291 86.5558C76.0041 86.2642 75.9416 85.9412 75.9416 85.5767C75.9416 84.9256 76.2176 84.3683 76.7749 83.91C77.2332 83.5246 77.7645 83.2537 78.3791 83.0975C78.9624 82.9308 79.5457 82.7642 80.1291 82.5975C80.7228 82.4308 81.327 82.285 81.9416 82.16C84.0666 81.7433 86.1916 81.3892 88.3166 81.0975C90.452 80.7954 92.5926 80.5142 94.7332 80.2642C97.2437 79.9308 99.7593 79.6704 102.275 79.4725C104.801 79.2798 107.317 79.1808 109.817 79.1808C110.702 79.1808 111.593 79.2121 112.483 79.2642C113.384 79.3058 114.275 79.3631 115.15 79.4308C115.827 79.4621 116.577 79.5923 117.4 79.8267C117.785 79.9256 118.093 80.0715 118.317 80.2642C118.577 80.4881 118.801 80.7225 118.983 80.9725C119.16 81.2121 119.254 81.4725 119.254 81.7642C119.254 81.9621 119.202 82.1912 119.108 82.4517C118.91 82.9829 118.619 83.4673 118.233 83.91C117.9 84.2746 117.567 84.634 117.233 84.9933C116.91 85.3579 116.572 85.6965 116.212 86.0142C115.306 86.8371 114.379 87.6183 113.421 88.3683C112.462 89.1183 111.509 89.8683 110.567 90.6183C108.483 92.3006 106.369 93.9621 104.233 95.5975C102.108 97.2485 100.03 98.9829 98.0041 100.806C97.5874 101.207 97.1707 101.608 96.7541 102.014C96.3478 102.415 95.9207 102.795 95.4624 103.16C95.2384 103.327 95.0301 103.493 94.8374 103.66C94.6395 103.837 94.4103 103.999 94.1499 104.139C93.952 104.233 93.7957 104.285 93.6707 104.285C93.5041 104.285 93.3582 104.212 93.2332 104.077C93.0926 103.952 93.0249 103.806 93.0249 103.639C93.0249 103.483 93.1082 103.29 93.2749 103.056C93.5353 102.691 93.8634 102.353 94.2541 102.035C95.5874 100.894 96.8999 99.7642 98.1916 98.6392C99.4937 97.5142 100.817 96.3996 102.15 95.3058C103.91 93.8631 105.692 92.4621 107.483 91.0975C109.275 89.7381 111.046 88.3579 112.796 86.9517C113.447 86.4256 114.056 85.8892 114.629 85.3475C115.197 84.7954 115.796 84.2537 116.421 83.7225C116.639 83.5298 116.843 83.3006 117.025 83.035C117.202 82.7746 117.379 82.5142 117.546 82.2642C117.639 82.0975 117.692 81.9673 117.692 81.8683C117.692 81.6496 117.525 81.4881 117.192 81.3892C116.968 81.3215 116.744 81.2537 116.525 81.1808C116.317 81.1131 116.098 81.0662 115.879 81.035C115.363 80.9673 114.858 80.9204 114.358 80.8892C113.869 80.8631 113.369 80.8267 112.858 80.785C112.426 80.759 111.994 80.7433 111.567 80.7433C111.15 80.7433 110.718 80.7433 110.275 80.7433C108.968 80.7433 107.655 80.7537 106.337 80.7642C105.014 80.7798 103.692 80.8683 102.358 81.035C102.119 81.0662 101.905 81.0975 101.712 81.1392C101.514 81.1704 101.306 81.2017 101.087 81.2433C100.863 81.9256 100.551 82.5662 100.15 83.16C99.7593 83.759 99.3374 84.3371 98.8791 84.8892C97.8791 86.1704 96.8582 87.4256 95.8166 88.66C94.7749 89.8996 93.6812 91.0871 92.5457 92.2225C89.7384 95.0142 86.8582 97.7277 83.8999 100.368C80.9416 103.004 77.8634 105.514 74.6707 107.889C72.7541 109.316 70.7801 110.65 68.7541 111.889C66.7384 113.124 64.6291 114.264 62.4207 115.306C61.1134 115.931 59.7801 116.483 58.4207 116.972C57.0718 117.457 55.6812 117.832 54.2541 118.097C53.5041 118.222 52.7437 118.332 51.9832 118.431C51.2176 118.54 50.4624 118.597 49.7124 118.597Z" fill="#2F6F8A" stroke="#2F6F8A" stroke-width="2"/>
<path d="M75.5435 153.001C74.4601 153.194 73.382 153.293 72.3143 153.293C71.106 153.293 69.908 153.137 68.731 152.834C67.5643 152.527 66.408 152.111 65.2726 151.584C64.8247 151.361 64.3872 151.105 63.9601 150.814C63.5435 150.522 63.1372 150.209 62.7518 149.876C60.9862 148.345 60.106 146.527 60.106 144.418C60.106 143.887 60.1893 143.272 60.356 142.564C60.5487 141.741 60.8039 140.959 61.1268 140.209C61.4601 139.459 61.8195 138.73 62.2101 138.022C62.7935 136.98 63.4445 135.98 64.1685 135.022C64.9028 134.064 65.6789 133.137 66.5018 132.251C68.0278 130.626 69.6528 129.095 71.3768 127.668C73.1112 126.236 74.9028 124.881 76.7518 123.605C79.3872 121.788 82.106 120.137 84.8976 118.647C87.6997 117.147 90.5851 115.845 93.5435 114.73L94.731 114.293C94.658 114.157 94.5903 114.038 94.5226 113.939C94.4653 113.845 94.3872 113.746 94.2935 113.647C93.6685 113.038 93.0695 112.413 92.5018 111.772C91.9289 111.137 91.3195 110.522 90.6685 109.939L83.2935 103.064C82.1945 102.022 81.1372 100.959 80.1268 99.8761C79.1112 98.7824 78.1164 97.6626 77.1476 96.522C76.3976 95.6053 75.7101 94.6626 75.0851 93.6886C74.4705 92.7043 73.9393 91.6626 73.481 90.5636C73.1164 89.647 72.8455 88.7199 72.6685 87.772C72.5018 86.8293 72.4185 85.9074 72.4185 85.0011C72.4185 84.5741 72.4393 84.1626 72.481 83.772C72.533 83.3866 72.5747 82.9751 72.606 82.5428C72.7726 81.0845 73.1112 79.6834 73.6268 78.3345C74.1528 76.9751 74.7414 75.647 75.3976 74.3553C77.6737 69.897 80.632 65.9386 84.2726 62.4803C87.3247 59.5793 90.5955 57.022 94.0851 54.8136C97.5695 52.6053 101.283 50.7511 105.231 49.2511C106.366 48.7928 107.533 48.4074 108.731 48.0845C109.939 47.7511 111.148 47.5116 112.356 47.3553C112.866 47.2876 113.398 47.2407 113.939 47.2095C114.481 47.1678 115.007 47.147 115.523 47.147C117.991 47.147 120.366 47.6366 122.648 48.6053C123.299 48.8709 123.908 49.1834 124.481 49.5428C125.049 49.9074 125.596 50.3136 126.127 50.772C127.195 51.7199 127.981 52.772 128.481 53.9386C128.991 55.1053 129.252 56.3918 129.252 57.7928C129.252 59.0584 129.106 60.2928 128.814 61.5011C128.523 62.7095 128.174 63.897 127.773 65.0636C126.991 67.4386 126.049 69.7407 124.939 71.9595C123.84 74.1678 122.627 76.3293 121.293 78.4386L119.877 80.647V80.7511C120.07 81.1418 120.168 81.397 120.168 81.522C120.168 81.7199 119.986 81.9803 119.627 82.3136C119.21 82.6626 118.82 83.0376 118.46 83.4386C118.096 83.8293 117.783 84.2668 117.523 84.7511C117.491 84.8241 117.418 84.9178 117.293 85.0428C117.028 85.3084 116.752 85.3553 116.46 85.1886C116.096 84.9699 115.981 84.6886 116.106 84.3553C116.2 84.1626 116.299 83.9595 116.398 83.7511C116.491 83.5428 116.611 83.3345 116.752 83.1261C116.945 82.8084 117.148 82.5011 117.356 82.2095C117.564 81.9178 117.762 81.6053 117.96 81.272C118.585 80.3032 119.21 79.3345 119.835 78.3761C120.471 77.4178 121.085 76.4334 121.668 75.4178C122.846 73.4074 123.918 71.3501 124.877 69.2511C125.835 67.1574 126.627 64.9803 127.252 62.7303C127.471 61.9126 127.668 61.1001 127.835 60.2928C128.002 59.4751 128.085 58.6574 128.085 57.8345C128.085 56.5428 127.825 55.3866 127.314 54.3553C126.814 53.3293 126.09 52.4074 125.148 51.5845C124.424 50.9751 123.658 50.4751 122.856 50.0845C122.064 49.6991 121.231 49.3709 120.356 49.1053C119.575 48.8449 118.783 48.6626 117.981 48.5636C117.189 48.4699 116.387 48.4178 115.585 48.4178C115.278 48.4178 114.981 48.4282 114.689 48.4386C114.398 48.4543 114.116 48.4803 113.856 48.522C112.075 48.6782 110.346 48.9907 108.668 49.4595C106.986 49.9334 105.335 50.5324 103.71 51.2511C100.361 52.7095 97.158 54.4282 94.106 56.397C91.0643 58.3709 88.1945 60.6261 85.5018 63.1678C83.4185 65.1574 81.5435 67.2928 79.8768 69.5845C78.2205 71.8761 76.8247 74.3657 75.6893 77.0428C74.9653 78.7251 74.4237 80.5116 74.0643 82.397C74.007 82.8293 73.9601 83.2459 73.9185 83.647C73.8872 84.0532 73.8768 84.4543 73.8768 84.8553C73.8768 85.9282 73.9862 86.9803 74.2101 88.022C74.4445 89.0636 74.8195 90.0949 75.3351 91.1053C75.7935 92.0116 76.3195 92.8866 76.9185 93.7303C77.5278 94.5793 78.158 95.3918 78.8143 96.1678C79.5643 97.0168 80.3039 97.8501 81.0435 98.6678C81.7935 99.4751 82.5747 100.251 83.3976 101.001C84.632 102.183 85.8664 103.355 87.106 104.522C88.3403 105.689 89.5955 106.845 90.8768 107.98C91.8195 108.829 92.7414 109.709 93.6476 110.626C94.5643 111.543 95.4237 112.491 96.231 113.459L96.3768 113.647C96.4445 113.621 96.5278 113.605 96.6268 113.605C96.7205 113.605 96.8039 113.595 96.8768 113.564C98.6268 112.97 100.398 112.413 102.189 111.897C103.981 111.371 105.773 110.933 107.564 110.584C108.674 110.35 109.793 110.121 110.918 109.897C112.043 109.663 113.153 109.532 114.252 109.501C114.71 109.475 115.174 109.454 115.648 109.439C116.116 109.413 116.585 109.397 117.043 109.397C117.721 109.397 118.398 109.433 119.064 109.501C119.731 109.574 120.387 109.72 121.043 109.939C121.335 110.038 121.611 110.163 121.877 110.314C122.137 110.454 122.398 110.605 122.648 110.772C122.814 110.871 122.945 111.001 123.043 111.168C123.168 111.334 123.168 111.532 123.043 111.751C122.945 111.975 122.762 112.084 122.502 112.084C122.403 112.084 122.299 112.058 122.189 112.001C122.075 111.933 121.96 111.887 121.835 111.855C120.168 111.204 118.533 110.876 116.939 110.876C116.674 110.876 116.418 110.876 116.168 110.876C115.929 110.876 115.679 110.892 115.418 110.918C112.429 111.209 109.465 111.621 106.523 112.147C103.575 112.663 100.752 113.538 98.0435 114.772L97.5018 115.022C97.5018 115.189 97.5487 115.329 97.6476 115.439C97.7414 115.553 97.8247 115.668 97.8976 115.793C98.356 116.584 98.7935 117.387 99.2101 118.189C99.6372 118.98 99.9862 119.793 100.252 120.626C100.569 121.616 100.793 122.584 100.918 123.543C101.054 124.501 101.127 125.449 101.127 126.397C101.127 127.798 100.96 129.173 100.627 130.522C100.304 131.866 99.8195 133.23 99.1685 134.605C98.6789 135.647 98.1112 136.647 97.4601 137.605C96.8039 138.564 96.106 139.48 95.356 140.355C93.4393 142.605 91.3195 144.605 89.0018 146.355C86.6945 148.116 84.2101 149.652 81.5435 150.959C80.5955 151.418 79.6164 151.819 78.606 152.168C77.606 152.527 76.5851 152.803 75.5435 153.001ZM75.3976 151.355C76.533 151.116 77.6476 150.782 78.731 150.355C79.8247 149.939 80.8768 149.47 81.8768 148.959C84.0018 147.845 85.9862 146.584 87.8351 145.168C89.6945 143.751 91.4393 142.194 93.0643 140.501C93.8143 139.72 94.5278 138.897 95.2101 138.022C95.8872 137.147 96.4914 136.236 97.0226 135.293C97.8247 133.861 98.4393 132.407 98.856 130.939C99.283 129.48 99.5018 127.949 99.5018 126.355C99.5018 125.564 99.4497 124.777 99.356 124.001C99.158 122.475 98.8195 120.996 98.3351 119.564C97.8455 118.137 97.0695 116.876 96.0018 115.793L95.856 115.647C95.8143 115.647 95.7778 115.647 95.7518 115.647C95.7205 115.647 95.6893 115.647 95.6476 115.647L94.9601 115.897C91.5122 117.137 88.1893 118.621 84.981 120.355C81.7726 122.079 78.6997 124.027 75.7726 126.209C74.1476 127.402 72.5695 128.673 71.0435 130.022C69.5122 131.381 68.0851 132.84 66.7518 134.397C66.0278 135.282 65.3403 136.189 64.6893 137.105C64.033 138.032 63.4497 139.022 62.9393 140.064C62.6164 140.756 62.3351 141.459 62.0851 142.168C61.8351 142.887 61.7101 143.637 61.7101 144.418C61.7101 145.168 61.8403 145.866 62.106 146.522C62.3664 147.173 62.7935 147.772 63.3768 148.314C63.7622 148.673 64.1685 149.001 64.5851 149.293C65.0122 149.584 65.4705 149.861 65.9601 150.126C66.9705 150.652 68.007 151.032 69.0643 151.272C70.1164 151.522 71.1997 151.647 72.3143 151.647C73.356 151.647 74.382 151.548 75.3976 151.355Z" fill="#2F6F8A" stroke="#2F6F8A" stroke-width="2"/>
<mask id="mask0_330_786" style="mask-type:luminance" maskUnits="userSpaceOnUse" x="0" y="0" width="171" height="171">
<path d="M1 1H170V170H1V1Z" fill="white" stroke="white" stroke-width="2"/>
</mask>
<g mask="url(#mask0_330_786)">
<path d="M85.5469 170.094C38.9427 170.094 1 132.151 1 85.5469C1 38.9427 38.9427 1 85.5469 1C132.151 1 170.094 38.9427 170.094 85.5469C170.094 132.151 132.151 170.094 85.5469 170.094ZM85.5469 2.25C39.6042 2.25 2.25 39.6042 2.25 85.5469C2.25 131.484 39.6042 168.844 85.5469 168.844C131.484 168.844 168.844 131.484 168.844 85.5469C168.844 39.6042 131.484 2.25 85.5469 2.25Z" fill="#2F6F8A" stroke="#2F6F8A" stroke-width="2"/>
</g>
</svg>
