<svg width="654" height="654" viewBox="0 0 654 654" fill="none" xmlns="http://www.w3.org/2000/svg">
<path d="M256.793 1.60013C255.46 2.66681 253.193 9.73346 250.66 21.0668C248.526 30.9335 246.526 39.2001 246.126 39.4668C245.726 39.8668 237.46 42.0002 227.593 44.1335C210.126 48.0002 206.526 49.7335 206.526 54.5335C206.526 55.6001 215.46 65.4668 226.393 76.5335L246.393 96.5335L265.993 92.2668L285.726 88.0002L290.793 92.9335C293.593 95.6002 295.86 98.4002 295.86 98.9335C295.86 99.4668 292.26 104.933 287.726 110.933C270.526 134.133 261.46 159.733 260.26 188.8C258.793 223.333 266.526 250.667 285.46 278.267C293.06 289.333 311.86 307.867 322.66 314.933C358.793 338.8 401.726 345.6 442.393 333.867C488.126 320.533 524.66 285.333 538.926 240.667C544.66 222.933 545.726 215.067 545.593 194.667C545.593 178.533 544.926 173.2 542.126 162.533C537.46 144.8 531.726 131.6 522.526 117.733C495.593 76.6668 451.993 53.3335 402.526 53.3335C369.86 53.3335 342.526 62.5335 315.993 82.2668L306.26 89.6002L300.393 83.8668L294.66 78.0002L298.526 61.3335C300.66 52.1335 302.393 43.4668 302.526 42.0002C302.526 38.8001 264.26 0.00012207 261.06 0.00012207C259.993 0.00012207 257.993 0.80014 256.793 1.60013ZM277.326 32.9335L288.793 44.6668L286.126 55.8668L283.593 67.0668L271.593 55.0668L259.593 43.0668L261.86 32.1335C263.193 26.2668 264.66 21.3335 265.06 21.3335C265.593 21.3335 271.06 26.5335 277.326 32.9335ZM262.526 64.6668C268.66 70.8001 273.46 76.2668 273.06 76.6668C272.66 77.0668 267.46 78.4001 261.46 79.6002L250.526 81.8668L239.193 70.6668C232.926 64.4001 227.86 59.0668 227.86 58.5335C227.86 57.6001 243.993 53.7335 248.526 53.4668C250.26 53.3335 255.326 57.4668 262.526 64.6668ZM437.193 70.6668C458.66 76.8002 477.993 88.1335 493.726 103.6C505.593 115.467 513.193 126.133 520.526 141.6C529.46 160.4 532.393 174 532.26 196.667C532.26 212.4 531.726 217.333 528.793 228.4C516.66 274.267 480.66 310.133 434.926 322.267C423.993 325.067 418.793 325.6 403.86 325.733C364.66 325.733 333.86 312.4 307.06 283.6C290.526 265.867 278.26 240.8 274.526 217.067C271.993 201.067 273.46 175.467 277.726 160.934C283.06 142.8 294.126 122.533 305.46 110C306.526 108.8 333.193 134 333.193 136.267C333.193 136.933 330.793 140.933 327.86 145.2C298.66 188 311.326 246.267 355.86 274C359.06 276 366.526 279.467 372.526 281.733C381.326 284.933 385.86 285.867 398.126 286.4C426.66 287.6 446.926 279.733 466.526 260.133C479.46 247.067 485.993 236 490.66 219.333C493.06 210.4 493.46 206.267 492.926 192.8C491.993 166.934 484.793 150.4 466.526 131.867C445.46 110.667 413.993 101.067 385.193 107.2C372.26 110 361.993 114.267 352.26 120.933L343.46 126.933L329.593 113.067L315.726 99.2002L324.793 92.4002C339.46 81.3335 357.46 73.2002 377.326 68.6668C390.393 65.7335 424.126 66.8002 437.193 70.6668ZM427.993 122.933C440.926 127.733 448.793 132.667 457.86 141.867C466.793 150.933 474.66 164.8 477.86 176.8C481.06 189.067 480.526 207.2 476.526 219.6C468.526 245.067 447.326 264.933 421.326 271.467C409.993 274.267 388.926 273.467 378.393 269.867C333.993 254.267 312.793 204.267 333.193 163.067C335.993 157.333 339.593 151.2 341.06 149.333L343.726 146L357.326 159.6L370.926 173.067L367.86 180.267C361.06 195.6 364.926 213.333 377.46 224.667C401.06 245.867 438.26 230.934 440.926 199.333C442.126 183.467 433.326 168.267 418.793 161.2C410.126 157.067 396.393 157.067 387.193 161.067L380.66 164.133L366.926 150.4L353.193 136.8L356.926 133.733C362.393 129.2 375.86 122.933 384.66 120.667C396.26 117.733 416.66 118.8 427.993 122.933ZM414.926 174.4C426.66 181.2 431.06 195.333 425.193 207.333C416.393 225.467 389.593 225.6 380.26 207.6C377.726 202.533 377.326 191.2 379.726 186.8C381.46 183.733 381.46 183.733 391.06 193.2C400.393 202.533 404.26 204.4 407.593 201.067C411.193 197.467 409.193 193.067 399.86 183.333L390.526 173.733L394.793 172.267C400.393 170.4 409.86 171.333 414.926 174.4Z" fill="white"/>
<path d="M589.86 308C575.06 310.133 560.393 316.533 490.126 351.6C449.993 371.6 416.659 388 416.126 388C415.593 388 414.126 385.333 412.793 382C409.193 373.467 400.926 364.667 392.126 360.4L384.526 356.667L319.193 355.867C256.659 355.2 253.459 355.067 244.526 352.267C223.059 345.467 195.193 343.467 176.126 347.467C147.993 353.2 124.126 370.4 105.859 398.133C101.459 404.667 89.7262 424.267 79.8595 441.467L61.8595 472.933L53.5928 472.267C43.7262 471.467 35.3261 474.133 28.3928 480.267C23.5928 484.533 3.99281 517.467 1.19281 525.867C-2.14052 536.267 1.72615 551.067 10.1261 558.933C15.9928 564.533 165.726 650.4 172.659 652.133C183.193 654.8 194.793 651.867 202.926 644.133C206.793 640.667 223.326 613.867 227.993 603.6C232.793 592.8 230.926 578.667 223.059 568.4L219.726 564L225.859 553.6C234.793 539.067 239.993 533.067 249.326 526.8C263.593 517.2 270.126 516 306.393 516C352.126 515.867 371.46 513.733 395.46 505.867C412.259 500.4 425.326 493.6 477.593 463.467C657.726 359.467 644.126 367.6 648.393 360.933C656.26 348.267 654.126 336.133 641.86 323.733C628.126 310 611.326 304.8 589.86 308ZM619.726 324C627.193 327.333 637.86 337.733 639.326 343.2C640.26 347.2 639.326 351.6 636.793 354.933C634.793 357.467 439.193 470.933 417.326 482.133C409.726 486.133 397.859 491.067 391.059 493.333C369.326 500.267 358.926 501.467 311.859 502.667C284.393 503.333 266.526 504.267 263.193 505.333C244.259 511.067 226.659 525.867 215.326 545.333C211.726 551.6 208.659 556.8 208.526 557.067C208.259 557.333 74.3928 480.4 73.7262 479.6C73.3261 479.2 111.726 413.067 116.393 406C132.126 382.133 154.659 365.6 177.993 360.667C195.993 356.8 221.859 358.8 243.193 365.6C252.126 368.4 255.059 368.667 317.193 369.333C379.46 370 381.993 370.133 387.193 372.8C407.593 383.467 407.993 413.333 387.993 425.067L381.859 428.667L332.126 429.067L282.526 429.467L280.393 432.667C277.859 436.533 279.726 440.933 284.259 442C285.993 442.533 308.926 442.667 335.326 442.4L383.193 442L392.126 437.6C404.393 431.6 411.993 422.267 415.06 409.333L416.526 403.333L489.859 366.533C530.26 346.267 566.793 328.4 571.193 326.8C590.526 319.467 606.926 318.533 619.726 324ZM60.9262 487.867C63.5928 489.333 98.5261 509.333 138.393 532.4C184.659 559.067 211.993 575.733 213.726 578C215.193 580.133 216.526 584.533 216.926 588.8C217.459 595.467 217.059 596.533 207.726 612.933C202.393 622.267 196.126 631.867 193.859 634.267C189.059 639.067 181.726 641.067 175.326 639.067C171.993 638 112.926 604.4 29.5928 556C17.4595 549.067 13.8595 544.267 13.8595 535.333C13.8595 529.333 15.0595 526.4 24.5261 510C36.5261 489.067 40.3928 485.333 50.1261 485.333C53.3261 485.333 58.1262 486.533 60.9262 487.867Z" fill="white"/>
</svg>
