<svg width="20" height="23" viewBox="0 0 20 23" fill="none" xmlns="http://www.w3.org/2000/svg">
<path fill-rule="evenodd" clip-rule="evenodd" d="M1 9.79555C1.01655 4.92137 4.98121 0.983501 9.85539 1.00005C14.7296 1.0166 18.6674 4.98137 18.6509 9.85555V9.95544C18.5909 13.1239 16.8218 16.0524 14.6529 18.3412C13.4126 19.6292 12.0274 20.7695 10.525 21.7394C10.1233 22.0869 9.52746 22.0869 9.12574 21.7394C6.88612 20.2817 4.92052 18.4412 3.3187 16.3022C1.89114 14.437 1.08057 12.173 1 9.82555V9.79555Z" stroke="#569FC4" stroke-width="2" stroke-linecap="round" stroke-linejoin="round"/>
<path d="M9.82537 12.7938C11.3875 12.7938 12.6539 11.5274 12.6539 9.96526C12.6539 8.4031 11.3875 7.13672 9.82537 7.13672C8.26321 7.13672 6.99683 8.4031 6.99683 9.96526C6.99683 11.5274 8.26321 12.7938 9.82537 12.7938Z" stroke="#569FC4" stroke-width="2" stroke-linecap="round" stroke-linejoin="round"/>
</svg>
