<svg width="661" height="662" viewBox="0 0 661 662" fill="none" xmlns="http://www.w3.org/2000/svg">
<path d="M283.632 1.46658C241.766 6.53324 205.099 21.7332 172.299 47.3332C161.499 55.8666 142.699 74.3999 134.032 85.3332C115.899 108.267 100.966 138.133 93.4989 166.933C88.2989 187.2 87.3656 196.933 86.4323 238.667C85.4989 276.667 85.0989 281.467 82.5656 288.933C80.9656 293.467 62.4323 327.867 41.4989 365.6C20.4323 403.2 2.29895 436.667 1.36561 440C-3.70105 456.133 5.76561 476.8 22.5656 486.133L29.6323 490L57.2323 490.4L84.8323 490.8L85.2323 536.4L85.6323 582L89.4989 590C96.8323 604.8 111.899 616.133 126.966 618.133C132.566 618.8 139.632 617.333 170.966 609.467C191.499 604.267 209.632 599.6 211.366 599.2L214.299 598.4V627.067V655.867L217.766 658.533C222.166 662 227.766 662.133 231.766 658.8C234.966 656.267 234.966 655.867 235.632 624.533L236.299 592.8L275.632 581.867C297.232 575.867 319.766 568.933 325.632 566.667C338.966 561.333 354.966 552.667 358.432 548.933C363.232 543.733 360.566 534.667 353.366 531.867C350.432 530.8 347.366 531.867 333.766 538.533C313.232 548.667 312.166 548.933 242.566 567.867C134.432 597.333 133.099 597.6 127.766 596.667C121.099 595.467 113.899 590.533 110.166 584.4C106.966 579.333 106.966 579.2 106.299 526.933L105.632 474.4L102.432 471.867C99.6323 469.6 96.8323 469.333 68.1656 469.333C33.2323 469.333 29.6323 468.667 24.9656 461.067C23.3656 458.4 22.2989 454.267 22.2989 450.8C22.2989 445.6 26.4323 437.467 58.8323 379.467C101.766 302.533 100.032 305.6 103.766 293.2C106.299 284.533 106.699 278.267 107.632 240C108.566 204.133 109.232 194.533 111.499 183.867C125.099 121.067 163.099 71.0666 218.966 42.9332C280.032 11.9999 352.966 14.7999 411.766 50.2666C418.299 54.1332 424.699 57.3332 426.032 57.3332C429.632 57.3332 435.232 52.6666 436.166 48.7999C437.499 43.1999 434.832 39.1999 426.032 33.7332C404.299 19.9999 372.966 7.86658 347.632 3.33324C332.699 0.666576 297.766 -0.400091 283.632 1.46658Z" fill="#A8D8EE"/>
<path d="M472.299 3.33317C469.099 6.39984 468.966 7.4665 468.966 21.3332C468.966 35.1998 469.099 36.2665 472.299 39.3332C474.299 41.4665 477.099 42.6665 479.632 42.6665C482.166 42.6665 484.966 41.4665 486.966 39.3332C490.166 36.2665 490.299 35.1998 490.299 21.3332C490.299 7.4665 490.166 6.39984 486.966 3.33317C484.966 1.19984 482.166 -0.000164986 479.632 -0.000164986C477.099 -0.000164986 474.299 1.19984 472.299 3.33317Z" fill="#A8D8EE"/>
<path d="M253.499 51.1999C239.232 56.3999 236.299 58.6666 235.899 64.7999C235.366 71.3333 238.832 76.2666 243.766 76.2666C249.899 76.2666 270.566 69.1999 273.766 65.9999C278.032 61.7333 278.032 55.5999 273.632 51.3333C269.632 47.1999 264.299 47.0666 253.499 51.1999Z" fill="#A8D8EE"/>
<path d="M351.899 53.7335C350.032 55.7335 348.966 58.5335 348.966 61.3335C348.966 65.3335 350.432 67.3335 359.499 76.2668C371.899 88.4002 375.632 89.4668 381.499 82.5335C383.366 80.2668 384.966 77.6002 384.966 76.5335C384.966 72.6668 381.099 67.2002 372.566 58.9335C365.366 52.1335 363.099 50.6668 359.366 50.6668C356.299 50.6668 353.766 51.7335 351.899 53.7335Z" fill="#A8D8EE"/>
<path d="M585.499 60.2667C574.832 71.0667 572.832 75.4667 576.166 80.8001C582.032 89.6001 588.566 88.0001 601.499 74.6667C608.832 67.0667 610.299 64.8001 610.299 61.0667C610.299 55.0667 605.766 50.6667 599.632 50.6667C595.899 50.6667 593.632 52.1334 585.499 60.2667Z" fill="#A8D8EE"/>
<path d="M457.899 66.1332C445.499 68.3998 430.032 74.1332 418.299 80.9332C406.966 87.5998 385.899 108.666 379.232 120C364.566 145.2 359.366 173.733 364.299 201.866C366.832 216.4 371.099 227.466 380.166 243.733C394.432 269.333 402.966 295.2 404.566 318C405.366 331.333 407.099 335.866 412.166 338.666L415.632 340.4V359.6C415.632 383.333 416.966 389.2 424.166 396.667C429.899 402.667 436.432 405.333 445.099 405.333C449.232 405.333 450.166 405.867 451.632 409.333C455.366 418.4 468.832 426.667 479.899 426.667C490.699 426.667 503.899 418.4 507.632 409.333C508.966 406.133 510.032 405.6 516.966 404.933C527.366 404 534.966 399.6 539.366 392C542.832 386.267 542.966 385.067 543.366 363.2C543.899 340.4 543.899 340.266 547.232 338.533C552.166 335.866 553.899 331.333 554.832 317.333C556.432 294.133 563.899 270 576.166 248.133C590.832 222 594.566 211.466 596.299 190.933C597.766 174.666 596.166 163.066 592.032 159.2C587.632 155.066 582.299 155.066 578.299 159.333C575.499 162.266 575.232 163.866 574.966 179.6C574.566 198.933 572.432 208.266 565.766 221.333C541.232 269.066 538.566 276.4 534.566 304.266L532.299 320H523.366C516.966 320 514.299 319.466 514.299 318.266C514.299 314.933 529.099 232.4 531.099 224.8C533.899 214.266 540.832 200.933 548.166 192C555.366 183.466 555.899 179.333 550.832 174.133C544.432 167.733 538.966 169.466 530.299 180.666L524.566 188.133L517.766 181.6C504.032 168.4 501.099 167.866 491.232 177.066C479.099 188.133 480.832 188 470.966 178.8C459.099 167.733 456.966 167.866 444.699 179.6C436.032 188 435.366 188.4 434.032 186C433.232 184.533 429.766 180.533 426.299 176.933C418.966 169.6 414.699 168.8 409.632 174C404.432 179.066 405.232 183.6 413.232 193.466C421.499 203.866 426.699 214.533 430.166 228.666C433.899 243.6 438.299 246.8 447.232 241.333C452.966 237.866 453.899 233.466 451.099 222.8C449.899 218 448.566 212.8 448.166 211.333C447.632 209.466 449.099 206.933 452.966 202.933C456.032 199.866 458.832 197.333 459.232 197.333C459.766 197.333 463.766 200.933 468.432 205.333C479.632 216.133 482.966 215.866 495.632 202.933C498.699 199.866 501.632 197.333 502.166 197.333C502.699 197.333 505.632 200 508.832 203.2L514.566 209.066L511.899 217.6C510.299 222.133 505.366 247.2 500.832 272.933L492.432 320H480.166H467.899L463.632 296.933C456.966 261.2 457.232 261.866 448.566 260.4C444.699 259.866 443.232 260.266 440.432 263.066C436.032 267.466 436.032 269.2 440.966 295.333C443.099 307.066 444.966 317.466 444.966 318.266C444.966 319.466 442.166 320 435.632 320C426.699 320 426.299 319.866 426.299 316.933C426.299 309.6 421.766 287.6 417.632 275.333C413.099 261.6 407.366 248.8 395.766 226.666C386.699 209.333 384.299 199.2 384.432 179.333C384.566 166.133 385.099 161.6 387.899 153.066C394.832 132 409.232 112.933 426.832 101.466C444.966 89.5998 470.032 83.8665 490.966 86.5332C515.099 89.8665 530.166 97.3332 548.299 115.2C554.966 121.6 561.766 127.466 563.366 128.133C567.499 129.733 573.099 127.066 575.366 122.4C577.899 117.066 574.699 110.8 564.032 100.133C535.499 71.8665 496.166 59.1998 457.899 66.1332ZM522.299 360.267C522.299 384 522.299 384 507.366 384C498.032 384 496.432 384.4 493.632 387.333C491.499 389.333 490.299 392.133 490.299 394.667C490.299 400.133 485.099 405.333 479.632 405.333C474.166 405.333 468.966 400.133 468.966 394.667C468.966 392.133 467.766 389.333 465.632 387.333C462.832 384.4 461.232 384 452.166 384C436.966 384 436.966 384 436.966 360.4V341.333H479.632H522.299V360.267Z" fill="#A8D8EE"/>
<path d="M192.032 86.4002C181.899 94.5335 165.766 112.4 157.632 124.533C139.899 151.2 129.899 181.6 128.032 214.667C127.366 227.467 127.499 228.933 130.032 232C132.032 234.533 133.899 235.333 138.299 235.333C146.032 235.333 148.966 231.6 148.966 221.467C148.966 211.6 152.166 191.2 155.632 178.667C163.232 151.467 182.566 122 205.232 103.067C213.766 95.8668 215.099 90.1335 209.632 84.6668C204.832 79.8668 199.766 80.4002 192.032 86.4002Z" fill="#A8D8EE"/>
<path d="M301.632 174C299.499 176 298.299 178.8 298.299 181.333C298.299 183.867 299.499 186.667 301.632 188.667C304.699 191.867 305.765 192 319.632 192C333.499 192 334.565 191.867 337.632 188.667C339.765 186.667 340.965 183.867 340.965 181.333C340.965 178.8 339.765 176 337.632 174C334.565 170.8 333.499 170.667 319.632 170.667C305.765 170.667 304.699 170.8 301.632 174Z" fill="#A8D8EE"/>
<path d="M621.632 174C619.499 176 618.299 178.8 618.299 181.333C618.299 183.867 619.499 186.667 621.632 188.667C624.699 191.867 625.765 192 639.632 192C653.499 192 654.565 191.867 657.632 188.667C659.765 186.667 660.965 183.867 660.965 181.333C660.965 178.8 659.765 176 657.632 174C654.565 170.8 653.499 170.667 639.632 170.667C625.765 170.667 624.699 170.8 621.632 174Z" fill="#A8D8EE"/>
<path d="M368.299 278.534C366.165 279.867 360.832 284.534 356.699 289.067C347.765 298.4 346.565 303.867 352.032 309.067C357.765 314.4 362.699 313.067 372.565 303.6C385.899 290.934 387.499 286.4 381.099 279.867C376.565 275.334 373.765 275.067 368.299 278.534Z" fill="#A8D8EE"/>
<path d="M578.166 279.867C571.766 286.4 573.366 290.933 586.699 303.6C593.899 310.533 596.166 312 599.899 312C605.766 312 610.299 307.467 610.299 301.467C610.299 297.867 608.699 295.467 602.032 288.4C589.232 275.067 584.699 273.467 578.166 279.867Z" fill="#A8D8EE"/>
<path d="M471.366 456.533C467.766 459.2 465.499 465.733 461.766 484.667C453.232 527.333 447.632 588.267 447.632 638.4C447.632 654 447.766 654.933 450.966 658C455.099 662.267 461.366 662.4 465.499 658.267C468.566 655.2 468.566 654.533 469.366 618.533C470.432 570.8 474.432 534.533 483.766 488C485.899 477.333 487.632 466.8 487.632 464.533C487.632 456.8 477.499 451.733 471.366 456.533Z" fill="#A8D8EE"/>
</svg>
