<svg width="680" height="678" viewBox="0 0 680 678" fill="none" xmlns="http://www.w3.org/2000/svg">
<path d="M547.22 1.29995C531.486 7.56662 524.553 26.6333 532.553 41.1666C535.086 45.5666 538.82 49.0333 546.553 54.3666C562.42 65.0333 573.886 74.6333 582.153 84.1C608.82 114.633 622.153 149.833 622.286 189.833C622.42 217.833 617.753 237.167 605.086 263.167C599.22 275.033 597.886 279.033 597.886 284.633C597.886 302.633 615.086 315.833 632.686 311.3C643.62 308.367 647.753 304.1 656.553 286.1C678.42 241.033 684.42 194.233 674.42 145.833C665.486 102.633 639.486 57.7 606.82 29.1666C594.286 18.3666 572.686 3.56662 566.02 1.29995C560.553 -0.433382 551.753 -0.433382 547.22 1.29995ZM573.22 30.1C614.953 58.1 644.553 104.1 654.82 156.5C658.286 174.633 658.02 210.633 654.153 228.767C650.42 245.7 644.686 262.367 637.086 277.567C630.686 290.1 627.353 292.9 622.553 289.833C618.42 287.3 618.686 283.567 623.62 273.567C654.286 212.767 650.153 144.633 612.153 87.8333C602.953 73.9666 578.553 50.1 563.62 40.1C556.953 35.5666 551.086 30.6333 550.553 29.1666C549.486 25.7 553.086 21.1666 557.086 21.1666C558.686 21.1666 565.886 25.1666 573.22 30.1Z" fill="#A8D8EE"/>
<path d="M489.353 53.8332C481.219 56.6332 477.619 59.9666 473.619 67.8332C465.619 83.2999 470.553 95.5666 489.619 108.367C499.486 114.9 513.486 128.5 519.619 137.3C525.753 146.367 532.286 160.767 535.353 172.5C537.619 180.767 538.286 186.9 538.286 199.833C538.286 219.967 535.486 231.567 526.419 250.1C520.953 261.167 520.286 263.3 520.819 269.567C522.019 283.167 529.086 291.967 541.753 295.3C550.019 297.433 557.886 295.967 565.086 290.9C569.353 287.967 572.019 284.233 577.219 273.833C590.286 247.967 594.419 229.967 594.419 199.167C594.419 179.033 594.019 174.9 590.819 162.1C580.419 120.1 556.686 85.5666 522.419 62.4999C506.553 51.6999 500.019 49.9666 489.353 53.8332ZM508.686 78.8999C542.553 101.167 565.086 135.967 571.886 177.033C576.553 204.633 572.286 234.633 560.153 260.367C553.486 274.5 550.286 277.3 545.086 273.833C540.819 271.033 541.086 268.1 546.419 257.433C567.086 216.233 564.153 167.3 538.553 127.567C530.686 115.433 513.353 98.0999 501.486 90.4999C491.086 83.8332 488.953 79.5666 493.886 75.5666C495.486 74.2332 497.619 73.1666 498.419 73.1666C499.353 73.1666 503.886 75.6999 508.686 78.8999Z" fill="#A8D8EE"/>
<path d="M176.553 55.0335C131.353 61.5668 92.4196 81.1668 59.7529 113.833C30.1529 143.3 11.8862 177.3 2.95291 219.033C-0.38042 235.033 -1.04709 270.767 1.75291 292.5C6.55291 330.367 13.3529 354.767 30.0196 394.9C53.3529 450.767 58.2862 474.367 60.5529 539.167C62.0196 578.633 63.7529 588.633 72.5529 607.433C101.62 669.567 174.953 694.767 236.42 663.967C257.886 653.167 278.02 633.033 288.286 612.233L293.086 602.5H350.553H407.886L455.22 636.5C505.886 672.9 506.953 673.567 513.22 667.167L516.553 663.967V633.433V602.767L532.286 602.233C549.62 601.7 553.22 600.5 561.086 592.367C570.42 582.767 570.02 587.567 569.62 476.367L569.22 376.233L565.22 369.7C562.686 365.7 558.686 361.7 554.686 359.167L548.153 355.167L470.286 354.767C427.486 354.633 392.553 354.233 392.553 353.833C392.553 353.567 393.753 350.1 395.22 346.367C405.753 319.833 412.02 269.3 408.686 238.5C398.686 147.167 332.686 74.6335 243.62 57.1668C225.22 53.4335 194.153 52.5001 176.553 55.0335ZM238.953 77.8335C264.286 82.7668 291.086 94.5001 312.686 110.1C318.686 114.233 329.353 123.833 336.42 131.3C361.753 157.433 376.953 186.367 384.82 222.9C387.22 234.1 387.62 240.767 387.62 259.833C387.486 293.3 383.22 319.167 373.486 342.9L369.086 353.833L341.486 354.233C326.286 354.367 313.886 354.233 313.886 353.833C313.886 353.3 316.286 349.433 319.353 345.033C332.153 326.1 338.153 308.1 340.686 280.233C344.953 233.033 333.086 195.167 304.286 164.5C265.353 122.767 203.486 109.833 150.42 132.233C118.42 145.7 90.4196 173.167 77.8863 203.433C69.2196 224.1 68.0196 231.3 68.0196 259.833C68.0196 289.167 69.8863 302.9 77.2196 327.167C83.4863 347.567 96.1529 378.767 99.4863 381.433C105.353 386.633 116.553 381.833 116.553 374.1C116.553 372.367 113.62 363.833 110.02 355.033C95.8863 320.233 90.4196 298.1 88.9529 269.833L88.1529 253.7L94.5529 248.1C105.486 238.5 121.62 234.233 136.02 237.167C152.82 240.633 166.02 250.9 173.486 266.367C179.753 279.433 179.22 303.7 172.42 316.367C170.953 319.167 165.753 326.367 160.686 332.5C144.42 352.633 136.42 373.033 133.62 401.433C131.62 421.3 133.22 443.033 139.753 481.167C142.286 496.233 144.82 512.367 145.22 517.033C146.286 526.1 148.686 529.833 154.553 531.3C158.553 532.233 164.02 529.167 166.02 524.633C167.62 521.3 165.62 504.233 160.02 472.5C148.686 407.967 153.353 375.433 178.553 344.5C194.153 325.3 199.086 311.833 199.22 289.167C199.22 262.633 187.353 240.633 165.22 226.233C147.753 214.767 123.22 211.833 103.62 218.767C98.2863 220.633 93.8863 221.7 93.8863 220.9C93.8863 218.5 102.953 199.967 107.353 193.567C132.953 156.1 180.82 136.1 225.22 144.5C277.22 154.233 316.686 198.633 320.153 251.167C320.953 264.767 318.82 291.3 315.753 303.033C312.153 316.633 302.02 334.5 289.886 348.1L284.286 354.5H261.086C244.286 354.5 236.553 355.033 233.353 356.367C227.22 358.9 219.486 365.967 216.153 372.367C213.22 377.833 213.22 377.833 212.82 475.567C212.553 540.9 212.953 575.033 213.886 578.5C216.02 586.5 222.953 594.633 231.086 598.767C237.753 602.233 239.62 602.5 253.486 602.5C261.753 602.5 268.553 603.033 268.553 603.567C268.553 605.967 259.886 618.1 252.82 625.433C205.62 675.033 122.686 661.833 92.5529 600.1C84.8196 584.233 83.2196 574.633 81.8863 537.167C79.6196 472.367 74.1529 446.233 51.2196 390.5C44.6862 374.633 37.4862 356.1 35.2196 349.167C26.0196 320.9 19.6196 275.033 21.0862 247.833C25.6196 160.367 92.9529 88.1001 181.22 75.9668C194.02 74.2335 225.62 75.1668 238.953 77.8335ZM545.22 379.167L548.553 382.367V478.5V574.633L545.22 577.833C542.153 581.033 541.486 581.167 522.686 581.167C504.153 581.167 503.22 581.3 499.62 584.367L495.886 587.567L495.22 613.033L494.553 638.5L455.22 610.233L415.886 581.833L328.153 581.167L240.286 580.5L237.086 576.767L233.886 573.033V479.033C233.886 398.633 234.153 384.5 235.886 381.167C236.953 379.167 238.553 377.167 239.486 376.767C240.42 376.367 308.953 375.967 391.62 375.967L542.02 375.833L545.22 379.167Z" fill="#A8D8EE"/>
<path d="M266.553 411.167C262.019 415.567 262.286 420.5 267.086 425.3L271.086 429.167L392.419 428.9C511.753 428.5 513.886 428.5 516.419 425.834C520.553 421.567 520.553 414.5 516.553 410.5C513.886 407.834 512.153 407.834 391.886 407.834H269.753L266.553 411.167Z" fill="#A8D8EE"/>
<path d="M266.553 471.167C261.22 476.367 262.286 483.967 268.686 487.167C271.886 488.9 289.753 489.167 392.286 489.167C511.62 489.167 512.153 489.167 515.753 486.367C520.42 482.767 520.553 474.9 516.153 470.767L513.086 467.834H391.353H269.753L266.553 471.167Z" fill="#A8D8EE"/>
<path d="M268.953 529.167C262.686 531.7 261.353 540.767 266.553 545.834L269.753 549.167H390.953C511.62 549.167 512.153 549.167 515.753 546.367C520.686 542.5 520.686 534.5 515.753 530.634C512.153 527.834 511.62 527.834 392.02 527.967C326.02 527.967 270.553 528.5 268.953 529.167Z" fill="#A8D8EE"/>
<path d="M425.886 108.234C421.886 110.234 418.553 113.567 415.886 117.834C412.553 123.3 411.886 125.7 411.886 133.167C411.886 144.367 415.753 150.634 426.953 158.234C442.02 168.5 451.22 182.767 454.153 200.5C456.02 211.834 454.153 222.634 447.753 237.434C443.753 246.367 443.086 249.434 443.486 254.767C444.953 269.3 457.086 280.234 471.753 280.1C487.62 279.967 497.353 269.567 505.62 243.834C515.753 212.234 512.153 179.834 495.086 149.567C488.02 137.167 468.953 117.434 457.22 110.5C446.686 104.234 434.82 103.434 425.886 108.234ZM448.686 130.634C452.153 132.767 459.22 139.034 464.42 144.5C490.286 171.7 497.22 213.967 481.353 247.3C476.02 258.5 472.686 261.167 467.753 257.834C463.753 255.167 463.753 252.1 467.753 244.1C485.353 209.167 474.553 166.367 441.886 142.634C435.086 137.567 432.553 135.034 432.553 132.767C432.553 125.434 439.353 124.634 448.686 130.634Z" fill="#A8D8EE"/>
</svg>
