<svg width="469" height="549" viewBox="0 0 469 549" fill="none" xmlns="http://www.w3.org/2000/svg">
<path d="M234.329 0C363.547 1.25059e-05 468.658 103.716 468.658 232.098C468.658 311.944 422.094 390.75 372.745 448.114C347.772 477.144 321.266 501.652 297.886 519.081C286.215 527.782 274.997 534.962 264.871 540.062C255.379 544.842 244.539 549 234.329 549C224.119 549 213.279 544.842 203.787 540.062C193.662 534.962 182.444 527.782 170.772 519.081C147.392 501.652 120.885 477.144 95.9121 448.114C46.5634 390.75 0.000113359 311.944 0 232.098C0 103.716 105.112 0 234.329 0ZM234.329 140.598C189.958 140.598 153.988 176.567 153.987 220.938C153.987 265.31 189.958 301.28 234.329 301.28C278.7 301.28 314.67 265.31 314.67 220.938C314.67 176.567 278.7 140.598 234.329 140.598Z" fill="#2F6F8A"/>
</svg>
